<svg width="64" height="64" viewBox="0 0 64 64" fill="none" xmlns="http://www.w3.org/2000/svg">
<circle cx="32" cy="32" r="32" fill="#3A61F0"/>
<path fill-rule="evenodd" clip-rule="evenodd" d="M22 24H42C43.104 24 44 24.896 44 26V38C44 39.104 43.104 40 42 40H22C20.896 40 20 39.104 20 38V26C20 24.896 20.896 24 22 24ZM41.5 38C41.776 38 42 37.776 42 37.5V31H22V37.5C22 37.776 22.224 38 22.5 38H41.5ZM42 28H22V26.5C22 26.224 22.224 26 22.5 26H41.5C41.776 26 42 26.224 42 26.5V28ZM24 34H33V33H24V34ZM30 36H24V35H30V36ZM37 34H40V33H37V34Z" fill="white"/>
</svg>
