<svg width="68" height="28" viewBox="0 0 68 28" fill="none" xmlns="http://www.w3.org/2000/svg">
<path d="M0.76 28V0.8H9.04C11.0667 0.8 12.6667 1.09333 13.84 1.68C15.04 2.26666 15.8933 3.09333 16.4 4.16C16.9333 5.22667 17.2 6.48 17.2 7.92V9.04C17.2 11.1467 16.2933 12.76 14.48 13.88C15.76 14.3867 16.7333 15.12 17.4 16.08C18.0667 17.04 18.4 18.1867 18.4 19.52V20.64C18.4 22.1067 18.1333 23.4 17.6 24.52C17.0667 25.6133 16.1867 26.4667 14.96 27.08C13.7333 27.6933 12.0933 28 10.04 28H0.76ZM9.04 5.2H5.56V12H9.04C10.1067 12 10.9067 11.76 11.44 11.28C12 10.7733 12.28 10.0933 12.28 9.24V7.92C12.28 7.06667 12 6.4 11.44 5.92C10.9067 5.44 10.1067 5.2 9.04 5.2ZM10.04 16.4H5.56V23.6H10.04C11.16 23.6 12.0133 23.3333 12.6 22.8C13.1867 22.2667 13.48 21.5467 13.48 20.64V19.32C13.48 18.4133 13.1867 17.7067 12.6 17.2C12.0133 16.6667 11.16 16.4 10.04 16.4ZM38.4431 28L36.7631 22.68H27.4431L25.7631 28H21.0031L30.0831 0.8H34.3231L43.4431 28H38.4431ZM30.0431 14.36L28.8031 18.28H35.3631L34.1231 14.36L32.1231 7.48L30.0431 14.36ZM47.9866 28V0.8H52.3866C54.4932 3.54667 56.4932 6.45333 58.3866 9.52C60.2799 12.56 61.9999 15.6933 63.5466 18.92L63.1866 10.8V0.8H67.7866V28H63.3866C61.6799 24.64 59.9066 21.2667 58.0666 17.88C56.2532 14.4667 54.3199 11.2533 52.2666 8.24L52.5866 17.6V28H47.9866Z" fill="white"/>
</svg>
