<svg width="346" height="344" viewBox="0 0 346 344" fill="none" xmlns="http://www.w3.org/2000/svg">
<ellipse cx="304.529" cy="276.622" rx="11.0588" ry="11.0742" fill="#3A61F0"/>
<ellipse cx="66.7648" cy="44.7568" rx="5.52941" ry="5.53708" fill="#F5A647"/>
<ellipse cx="325.956" cy="250.321" rx="5.52941" ry="5.53708" fill="#F5A647"/>
<ellipse cx="293.474" cy="12.2265" rx="2.76471" ry="2.76854" fill="#3A61F0"/>
<ellipse cx="55.7059" cy="34.375" rx="2.76471" ry="2.76854" fill="#3A61F0"/>
<path d="M32.7757 11.4186C32.777 11.4173 32.7776 11.4167 32.7782 11.4162C33.8579 10.3361 35.6089 10.3361 36.6886 11.4162C36.6892 11.4167 36.6898 11.4173 36.691 11.4186L48.9094 23.6539C48.9107 23.6552 48.9113 23.6558 48.9119 23.6563C49.9883 24.7355 49.9883 26.4823 48.9119 27.5614C48.9113 27.5619 48.9107 27.5625 48.9094 27.5638C48.9082 27.5651 48.9076 27.5657 48.907 27.5662C47.8273 28.6463 46.0763 28.6463 44.9966 27.5662C44.996 27.5657 44.9954 27.5651 44.9941 27.5638L32.7757 15.3285C32.7745 15.3272 32.7739 15.3266 32.7733 15.3261C31.6969 14.2469 31.6969 12.5001 32.7733 11.421C32.7739 11.4205 32.7745 11.4198 32.7757 11.4186Z" fill="#3A61F0"/>
<path d="M270.543 7.95766C270.545 7.9564 270.545 7.95577 270.546 7.95523C271.626 6.87516 273.377 6.87516 274.456 7.95523C274.457 7.95577 274.457 7.9564 274.459 7.95766L286.677 20.193C286.678 20.1942 286.679 20.1949 286.68 20.1954C287.756 21.2745 287.756 23.0213 286.68 24.1004C286.679 24.101 286.678 24.1016 286.677 24.1029C286.676 24.1041 286.675 24.1048 286.675 24.1053C285.595 25.1854 283.844 25.1854 282.764 24.1053C282.764 24.1048 282.763 24.1041 282.762 24.1029L270.543 11.8675C270.542 11.8663 270.542 11.8657 270.541 11.8651C269.465 10.786 269.465 9.0392 270.541 7.96007C270.542 7.95954 270.542 7.95891 270.543 7.95766Z" fill="#F5A647"/>
<mask id="mask0" mask-type="alpha" maskUnits="userSpaceOnUse" x="17" y="22" width="329" height="245">
<path d="M24.1453 125.863C56.0412 82.5721 71.9891 60.9265 74.7113 58.025C82.0923 50.1579 74.014 57.508 82.5413 50.9007C85.6863 48.4639 97.2557 41.5185 120.394 27.6276C125.919 24.311 132.323 22.3115 139.735 22.3115C170.915 22.3115 252.015 33.933 295.295 40.4905C300.182 41.231 302.626 41.6013 312.053 46.2952C316.216 48.3679 330.763 59.8864 333.735 63.4629C340.465 71.5626 338.329 66.2394 339.183 68.3686C343.649 79.4927 346.736 94.7283 344.375 114.42C342.075 133.599 294.237 140.408 283.346 172.918C272.34 205.772 266.836 222.199 266.174 223.873C251.529 260.87 247.167 264.009 207.433 266.144C205.636 266.24 204.426 266.24 202.006 266.24H122.821C92.6337 266.24 77.5399 266.24 64.379 260.295C53.4532 255.359 42.5046 246.001 35.9274 235.977C28.0045 223.903 25.8839 210.452 21.6426 183.55C19.2743 168.529 17.6263 154.428 17.6263 144.276C17.6263 137.472 20.1119 131.338 24.1453 125.863Z" fill="white"/>
</mask>
<g mask="url(#mask0)">
<path fill-rule="evenodd" clip-rule="evenodd" d="M-105.822 189.555L-105.817 189.56L-105.812 189.565C-104.733 190.642 -102.986 190.642 -101.907 189.565L-101.902 189.56L210.395 -122.736L210.399 -122.741C211.476 -123.82 211.476 -125.568 210.399 -126.647L210.395 -126.652L210.39 -126.657C209.311 -127.733 207.563 -127.733 206.484 -126.657L206.479 -126.652L-105.817 185.645L-105.822 185.65C-106.899 186.729 -106.899 188.476 -105.822 189.555ZM-94.0762 201.301L-94.0713 201.306L-94.0665 201.311C-92.9873 202.388 -91.2401 202.388 -90.1609 201.311L-90.156 201.306L222.141 -110.99L222.145 -110.995C223.222 -112.075 223.222 -113.822 222.145 -114.901L222.141 -114.906L222.136 -114.911C221.057 -115.987 219.309 -115.987 218.23 -114.911L218.225 -114.906L-94.0713 197.391L-94.0762 197.396C-95.153 198.475 -95.153 200.222 -94.0762 201.301ZM-82.3254 213.052L-82.3303 213.047C-83.4071 211.968 -83.4071 210.221 -82.3303 209.142L-82.3254 209.137L229.971 -103.16L229.976 -103.165C231.055 -104.242 232.802 -104.242 233.882 -103.165L233.886 -103.16L233.891 -103.155C234.968 -102.076 234.968 -100.329 233.891 -99.2494L233.886 -99.2446L-78.4101 213.052L-78.4149 213.057C-79.4941 214.134 -81.2414 214.134 -82.3206 213.057L-82.3254 213.052ZM-70.5843 224.793L-70.5795 224.798L-70.5747 224.803C-69.4955 225.88 -67.7482 225.88 -66.669 224.803L-66.6642 224.798L245.632 -87.4987L245.637 -87.5035C246.714 -88.5827 246.714 -90.3299 245.637 -91.4091L245.632 -91.414L245.628 -91.4188C244.548 -92.4956 242.801 -92.4956 241.722 -91.4188L241.717 -91.414L-70.5795 220.883L-70.5843 220.887C-71.6612 221.967 -71.6612 223.714 -70.5843 224.793ZM-58.8336 236.544L-58.8384 236.539C-59.9153 235.46 -59.9153 233.713 -58.8384 232.633L-58.8336 232.629L253.463 -79.668L253.468 -79.6729C254.547 -80.7497 256.294 -80.7497 257.373 -79.6729L257.378 -79.668L257.383 -79.6632C258.46 -78.584 258.46 -76.8368 257.383 -75.7576L257.378 -75.7527L-54.9183 236.544L-54.9231 236.549C-56.0023 237.626 -57.7495 237.626 -58.8287 236.549L-58.8336 236.544ZM-47.0925 248.285L-47.0877 248.29L-47.0828 248.295C-46.0036 249.371 -44.2564 249.371 -43.1772 248.295L-43.1724 248.29L269.124 -64.0068L269.129 -64.0117C270.206 -65.0908 270.206 -66.8381 269.129 -67.9173L269.124 -67.9221L269.119 -67.927C268.04 -69.0038 266.293 -69.0038 265.214 -67.927L265.209 -67.9221L-47.0877 244.374L-47.0925 244.379C-48.1693 245.459 -48.1693 247.206 -47.0925 248.285ZM-35.3417 260.036L-35.3466 260.031C-36.4234 258.952 -36.4234 257.204 -35.3466 256.125L-35.3417 256.12L276.955 -56.1762L276.96 -56.181C278.039 -57.2579 279.786 -57.2579 280.865 -56.181L280.87 -56.1762L280.875 -56.1714C281.952 -55.0922 281.952 -53.3449 280.875 -52.2657L280.87 -52.2609L-31.4265 260.036L-31.4313 260.041C-32.5105 261.117 -34.2577 261.117 -35.3369 260.041L-35.3417 260.036ZM-23.6007 271.777L-23.5958 271.782L-23.591 271.786C-22.5118 272.863 -20.7646 272.863 -19.6854 271.786L-19.6805 271.782L292.616 -40.515L292.621 -40.5198C293.698 -41.599 293.698 -43.3463 292.621 -44.4254L292.616 -44.4303L292.611 -44.4351C291.532 -45.512 289.785 -45.512 288.706 -44.4351L288.701 -44.4303L-23.5958 267.866L-23.6007 267.871C-24.6775 268.95 -24.6775 270.698 -23.6007 271.777ZM-11.8499 283.528L-11.8548 283.523C-12.9316 282.443 -12.9316 280.696 -11.8547 279.617L-11.8499 279.612L300.447 -32.6844L300.452 -32.6892C301.531 -33.766 303.278 -33.7661 304.357 -32.6892L304.362 -32.6844L304.367 -32.6795C305.444 -31.6003 305.444 -29.8531 304.367 -28.7739L304.362 -28.7691L-7.93462 283.528L-7.93944 283.532C-9.01864 284.609 -10.7659 284.609 -11.8451 283.532L-11.8499 283.528ZM-0.108833 295.269L-0.103989 295.273L-0.0991444 295.278C0.980051 296.355 2.72728 296.355 3.80648 295.278L3.8113 295.273L316.108 -17.0232L316.113 -17.028C317.19 -18.1072 317.19 -19.8544 316.113 -20.9336L316.108 -20.9384L316.103 -20.9433C315.024 -22.0201 313.277 -22.0201 312.197 -20.9433L312.193 -20.9385L-0.103989 291.358L-0.108829 291.363C-1.18567 292.442 -1.18568 294.189 -0.108833 295.269ZM11.6419 307.019L11.6371 307.015C10.5602 305.935 10.5602 304.188 11.6371 303.109L11.6419 303.104L323.939 -9.19254L323.943 -9.19737C325.023 -10.2742 326.77 -10.2742 327.849 -9.19737L327.854 -9.19253L327.859 -9.18768C328.936 -8.1085 328.936 -6.36125 327.859 -5.28207L327.854 -5.27723L15.5572 307.019L15.5524 307.024C14.4732 308.101 12.726 308.101 11.6468 307.024L11.6419 307.019ZM23.383 318.76L23.3878 318.765L23.3927 318.77C24.4719 319.847 26.2191 319.847 27.2983 318.77L27.3031 318.765L339.6 6.46869L339.605 6.46385C340.681 5.38467 340.681 3.63742 339.605 2.55823L339.6 2.55339L339.595 2.54855C338.516 1.47169 336.768 1.47171 335.689 2.54855L335.684 2.55338L23.3878 314.85L23.383 314.855C22.3062 315.934 22.3062 317.681 23.383 318.76ZM35.1338 330.511L35.1289 330.506C34.0521 329.427 34.0521 327.68 35.1289 326.601L35.1338 326.596L347.43 14.2993L347.435 14.2945C348.514 13.2176 350.262 13.2176 351.341 14.2945L351.346 14.2993L351.351 14.3042C352.427 15.3833 352.427 17.1306 351.351 18.2098L351.346 18.2146L39.0491 330.511L39.0442 330.516C37.965 331.593 36.2178 331.593 35.1386 330.516L35.1338 330.511ZM46.8748 342.252L46.8797 342.257L46.8845 342.262C47.9637 343.339 49.7109 343.339 50.7901 342.262L50.795 342.257L363.092 29.9605L363.096 29.9557C364.173 28.8765 364.173 27.1292 363.096 26.0501L363.092 26.0452L363.087 26.0404C362.008 24.9635 360.26 24.9635 359.181 26.0404L359.176 26.0452L46.8797 338.342L46.8748 338.347C45.798 339.426 45.798 341.173 46.8748 342.252ZM58.6256 354.003L58.6207 353.998C57.5439 352.919 57.5439 351.172 58.6207 350.093L58.6256 350.088L370.922 37.7911L370.927 37.7863C372.006 36.7095 373.753 36.7094 374.833 37.7863L374.837 37.7911L374.842 37.796C375.919 38.8752 375.919 40.6224 374.842 41.7016L374.837 41.7064L62.5409 354.003L62.5361 354.008C61.4569 355.085 59.7096 355.085 58.6304 354.008L58.6256 354.003ZM70.3667 365.744L70.3715 365.749L70.3764 365.754C71.4555 366.831 73.2028 366.831 74.282 365.754L74.2868 365.749L386.583 53.4523L386.588 53.4475C387.665 52.3683 387.665 50.6211 386.588 49.5419L386.583 49.5371L386.579 49.5322C385.499 48.4554 383.752 48.4554 382.673 49.5322L382.668 49.537L70.3715 361.834L70.3667 361.838C69.2898 362.918 69.2898 364.665 70.3667 365.744ZM82.1174 377.495L82.1126 377.49C81.0358 376.411 81.0357 374.664 82.1126 373.584L82.1174 373.58L394.414 61.283L394.419 61.2781C395.498 60.2013 397.245 60.2013 398.324 61.2781L398.329 61.283L398.334 61.2878C399.411 62.367 399.411 64.1143 398.334 65.1934L398.329 65.1983L86.0327 377.495L86.0279 377.5C84.9487 378.577 83.2015 378.577 82.1223 377.5L82.1174 377.495ZM93.8585 389.236L93.8633 389.241L93.8682 389.246C94.9474 390.322 96.6946 390.322 97.7738 389.246L97.7786 389.241L410.075 76.9442L410.08 76.9394C411.157 75.8602 411.157 74.1129 410.08 73.0337L410.075 73.0289L410.07 73.0241C408.991 71.9472 407.244 71.9472 406.165 73.0241L406.16 73.0289L93.8634 385.325L93.8585 385.33C92.7817 386.41 92.7817 388.157 93.8585 389.236ZM105.609 400.987L105.604 400.982C104.528 399.903 104.528 398.155 105.604 397.076L105.609 397.071L417.906 84.7748L417.911 84.77C418.99 83.6931 420.737 83.6931 421.816 84.77L421.821 84.7748L421.826 84.7797C422.903 85.8588 422.903 87.6061 421.826 88.6853L421.821 88.6901L109.525 400.987L109.52 400.992C108.441 402.068 106.693 402.068 105.614 400.992L105.609 400.987ZM117.35 412.728L117.355 412.733L117.36 412.737C118.439 413.814 120.186 413.814 121.266 412.737L121.27 412.733L433.567 100.436L433.572 100.431C434.649 99.352 434.649 97.6048 433.572 96.5256L433.567 96.5207L433.562 96.5159C432.483 95.439 430.736 95.439 429.657 96.5159L429.652 96.5207L117.355 408.817L117.35 408.822C116.273 409.901 116.274 411.649 117.35 412.728Z" fill="#373E68"/>
</g>
<path d="M43.4772 180.114C44.3587 139.135 44.7995 118.646 55.1967 98.9779C63.6852 82.9207 79.9295 67.0221 96.1655 58.8809C116.052 48.9092 139.913 48.9092 187.635 48.9092H209.662C237.649 48.9092 251.643 48.9092 269.107 56.2463C285.89 63.297 312.311 89.7183 319.362 106.501C326.699 123.966 326.699 129.018 326.699 139.122C326.699 155.913 318.466 182.505 309.844 205.749C304.552 220.017 301.906 227.151 295.497 236.586C290.893 243.363 281.297 253.506 274.786 258.478C265.721 265.4 258.639 268.483 244.476 274.649C219.876 285.36 190.341 296.515 169.018 299.121C140.148 302.651 110.328 281.153 93.497 266.25C80.4389 254.688 73.9098 248.907 73.0301 248.087C70.6919 245.907 72.9845 248.118 70.722 245.86C69.8707 245.011 68.3244 243.386 65.2316 240.138C56.2452 230.698 46.0366 216.46 44.001 199.089C43.4492 194.38 43.3109 187.843 43.4772 180.114Z" fill="#3A61F0"/>
<g filter="url(#filter0_ddi)">
<path fill-rule="evenodd" clip-rule="evenodd" d="M103.397 37.1435C103.397 24.5289 113.623 14.3027 126.238 14.3027H229.159C241.774 14.3027 252 24.5289 252 37.1435V291.156C252 303.771 241.774 313.997 229.159 313.997H126.238C113.623 313.997 103.397 303.771 103.397 291.156V37.1435Z" fill="url(#paint0_linear)"/>
</g>
<path fill-rule="evenodd" clip-rule="evenodd" d="M112.382 175.224V95.6289V291.157C112.382 298.361 118.33 304.308 125.55 304.308H229.156C236.376 304.308 242.324 298.361 242.324 291.157V172.456V36.4513C242.324 29.2475 236.376 23.3008 229.156 23.3008H215.64C214.493 23.3008 213.563 24.2304 213.563 25.3772V25.7233C213.678 30.376 209.961 34.0928 205.247 34.0289H149.112C144.33 34.0928 140.612 30.376 140.796 25.7233V25.3772C140.796 24.2304 139.867 23.3008 138.72 23.3008H137.331H133.866H130.747C130.649 23.3008 128.988 23.3008 125.55 23.3008C118.33 23.3008 112.382 29.2475 112.382 36.4513V97.3592" fill="#FBFBFB"/>
<mask id="mask1" mask-type="alpha" maskUnits="userSpaceOnUse" x="112" y="23" width="131" height="282">
<path fill-rule="evenodd" clip-rule="evenodd" d="M112.382 175.224V95.6289V291.157C112.382 298.361 118.33 304.308 125.55 304.308H229.156C236.376 304.308 242.324 298.361 242.324 291.157V172.456V36.4513C242.324 29.2475 236.376 23.3008 229.156 23.3008H215.64C214.493 23.3008 213.563 24.2304 213.563 25.3772V25.7233C213.678 30.376 209.961 34.0928 205.247 34.0289H149.112C144.33 34.0928 140.612 30.376 140.796 25.7233V25.3772C140.796 24.2304 139.867 23.3008 138.72 23.3008H137.331H133.866H130.747C130.649 23.3008 128.988 23.3008 125.55 23.3008C118.33 23.3008 112.382 29.2475 112.382 36.4513V97.3592" fill="white"/>
</mask>
<g mask="url(#mask1)">
<path fill-rule="evenodd" clip-rule="evenodd" d="M112.382 175.224V95.6289V291.157C112.382 298.361 118.33 304.308 125.55 304.308H229.156C236.376 304.308 242.324 298.361 242.324 291.157V172.456V36.4513C242.324 29.2475 236.376 23.3008 229.156 23.3008H215.64C214.493 23.3008 213.563 24.2304 213.563 25.3772V25.7233C213.678 30.376 209.961 34.0928 205.247 34.0289H149.112C144.33 34.0928 140.612 30.376 140.796 25.7233V25.3772C140.796 24.2304 139.867 23.3008 138.72 23.3008H137.331H133.866H130.747C130.649 23.3008 128.988 23.3008 125.55 23.3008C118.33 23.3008 112.382 29.2475 112.382 36.4513V97.3592" fill="#F5A647"/>
</g>
<g filter="url(#filter1_bd)">
<rect x="17" y="163.804" width="117.5" height="77.5191" rx="8.98529" fill="#3A61F0" fill-opacity="0.24"/>
<rect x="17.3456" y="164.149" width="116.809" height="76.8279" rx="8.63971" stroke="white" stroke-opacity="0.08" stroke-width="0.691176"/>
</g>
<path d="M34.9692 174.293C35.8253 173.798 36.8806 173.798 37.7367 174.293L42.155 176.848C43.0096 177.342 43.5359 178.254 43.5359 179.241V184.356C43.5359 185.344 43.0095 186.256 42.155 186.75L37.7367 189.304C36.8806 189.799 35.8253 189.799 34.9692 189.304L30.551 186.75C29.6964 186.256 29.17 185.344 29.17 184.356V179.241C29.17 178.254 29.6964 177.342 30.551 176.848L34.9692 174.293Z" fill="#F5A647"/>
<rect x="28.0588" y="208.792" width="19.3529" height="5.53708" rx="2.76471" fill="#B1C2FF"/>
<rect x="28.0588" y="223.327" width="30.4118" height="5.53708" rx="2.76471" fill="white"/>
<ellipse cx="120.676" cy="226.788" rx="3.45588" ry="3.46067" fill="white"/>
<rect x="50.1765" y="208.792" width="19.3529" height="5.53708" rx="2.76471" fill="#B1C2FF"/>
<rect x="72.2941" y="208.792" width="19.3529" height="5.53708" rx="2.76471" fill="#B1C2FF"/>
<rect x="94.4117" y="208.792" width="19.3529" height="5.53708" rx="2.76471" fill="#B1C2FF"/>
<g filter="url(#filter2_d)">
<ellipse cx="252" cy="266.24" rx="22.1176" ry="22.1483" fill="white"/>
</g>
<path fill-rule="evenodd" clip-rule="evenodd" d="M252 257.935L260.294 264.164H243.706L252 257.935ZM248.544 272.469H245.779V264.856H248.544V272.469ZM253.382 272.469V264.856H250.618V272.469H253.382ZM255.456 264.856H258.221V272.469H255.456V264.856ZM259.603 274.546V273.162H244.397V274.546H259.603Z" fill="#3A61F0"/>
<defs>
<filter id="filter0_ddi" x="81.3971" y="0.302734" width="192.603" height="343.694" filterUnits="userSpaceOnUse" color-interpolation-filters="sRGB">
<feFlood flood-opacity="0" result="BackgroundImageFix"/>
<feColorMatrix in="SourceAlpha" type="matrix" values="0 0 0 0 0 0 0 0 0 0 0 0 0 0 0 0 0 0 127 0"/>
<feOffset dy="8"/>
<feGaussianBlur stdDeviation="11"/>
<feColorMatrix type="matrix" values="0 0 0 0 0 0 0 0 0 0 0 0 0 0 0 0 0 0 0.04 0"/>
<feBlend mode="normal" in2="BackgroundImageFix" result="effect1_dropShadow"/>
<feColorMatrix in="SourceAlpha" type="matrix" values="0 0 0 0 0 0 0 0 0 0 0 0 0 0 0 0 0 0 127 0"/>
<feOffset dy="4"/>
<feGaussianBlur stdDeviation="7.5"/>
<feColorMatrix type="matrix" values="0 0 0 0 0 0 0 0 0 0 0 0 0 0 0 0 0 0 0.01 0"/>
<feBlend mode="normal" in2="effect1_dropShadow" result="effect2_dropShadow"/>
<feBlend mode="normal" in="SourceGraphic" in2="effect2_dropShadow" result="shape"/>
<feColorMatrix in="SourceAlpha" type="matrix" values="0 0 0 0 0 0 0 0 0 0 0 0 0 0 0 0 0 0 127 0" result="hardAlpha"/>
<feOffset dy="-3"/>
<feGaussianBlur stdDeviation="3.5"/>
<feComposite in2="hardAlpha" operator="arithmetic" k2="-1" k3="1"/>
<feColorMatrix type="matrix" values="0 0 0 0 0 0 0 0 0 0 0 0 0 0 0 0 0 0 0.05 0"/>
<feBlend mode="normal" in2="shape" result="effect3_innerShadow"/>
</filter>
<filter id="filter1_bd" x="0" y="152.531" width="151.5" height="113.792" filterUnits="userSpaceOnUse" color-interpolation-filters="sRGB">
<feFlood flood-opacity="0" result="BackgroundImageFix"/>
<feGaussianBlur in="BackgroundImage" stdDeviation="5.63644"/>
<feComposite in2="SourceAlpha" operator="in" result="effect1_backgroundBlur"/>
<feColorMatrix in="SourceAlpha" type="matrix" values="0 0 0 0 0 0 0 0 0 0 0 0 0 0 0 0 0 0 127 0"/>
<feOffset dy="8"/>
<feGaussianBlur stdDeviation="8.5"/>
<feColorMatrix type="matrix" values="0 0 0 0 0 0 0 0 0 0 0 0 0 0 0 0 0 0 0.08 0"/>
<feBlend mode="normal" in2="effect1_backgroundBlur" result="effect2_dropShadow"/>
<feBlend mode="normal" in="SourceGraphic" in2="effect2_dropShadow" result="shape"/>
</filter>
<filter id="filter2_d" x="212.882" y="235.092" width="78.2353" height="78.2966" filterUnits="userSpaceOnUse" color-interpolation-filters="sRGB">
<feFlood flood-opacity="0" result="BackgroundImageFix"/>
<feColorMatrix in="SourceAlpha" type="matrix" values="0 0 0 0 0 0 0 0 0 0 0 0 0 0 0 0 0 0 127 0"/>
<feOffset dy="8"/>
<feGaussianBlur stdDeviation="8.5"/>
<feColorMatrix type="matrix" values="0 0 0 0 0 0 0 0 0 0 0 0 0 0 0 0 0 0 0.08 0"/>
<feBlend mode="normal" in2="BackgroundImageFix" result="effect1_dropShadow"/>
<feBlend mode="normal" in="SourceGraphic" in2="effect1_dropShadow" result="shape"/>
</filter>
<linearGradient id="paint0_linear" x1="140.548" y1="164.15" x2="140.548" y2="313.997" gradientUnits="userSpaceOnUse">
<stop stop-color="white"/>
<stop offset="1" stop-color="#FAFBFC"/>
</linearGradient>
</defs>
</svg>
