<svg width="253" height="221" viewBox="0 0 253 221" fill="none" xmlns="http://www.w3.org/2000/svg">
<rect width="253" height="221" fill="white"/>
<circle cx="44" cy="42.8264" r="12" fill="#3A61F0"/>
<circle cx="221" cy="151.826" r="9" fill="#181C33"/>
<circle cx="27.5" cy="158.326" r="4.5" fill="#F5A647"/>
<path d="M101.592 55.2641C106.186 43.6248 108.483 37.8052 112.865 33.9707C116.61 30.6939 121.695 28.5355 126.654 28.1175C132.456 27.6284 138.472 30.1153 150.505 35.089L173.98 44.7922C179.733 47.17 182.609 48.3588 185.1 50.2583C187.224 51.8785 189.261 54.082 190.71 56.3268C192.409 58.9586 193.317 61.7572 195.132 67.3543C200.483 83.855 207.848 108.831 207.848 121.319C207.848 133.976 197.658 152.907 190.431 164.744C188.299 168.236 187.232 169.982 185.439 171.855C183.996 173.363 181.843 175.048 180.032 176.085C177.782 177.374 175.525 178.085 171.012 179.506L147.642 186.864C136.494 190.374 130.92 192.129 125.582 191.395C121.034 190.769 116.361 188.62 112.926 185.573C108.895 181.998 106.706 176.87 102.328 166.616C93.8887 146.848 84.6641 122.691 84.6641 111.541C84.6641 100.715 93.3615 76.1174 101.592 55.2641Z" fill="#181C33"/>
<path d="M55.5196 64.9886C70.0059 52.4039 78.8301 39.8769 85.6915 36.2522C86.585 35.7802 87.4665 35.3222 88.3357 34.8777C96.459 30.7238 100.521 28.6469 107.731 29.4776C112.926 30.076 120.494 34.2719 123.753 38.3612C128.277 44.0373 128.761 49.6849 129.73 60.9802C131.245 78.6477 132.645 97.3823 132.645 106.271C132.645 120.185 129.213 160.87 127.282 182.661C126.809 188 127.992 174.653 123.572 180.266C122.165 182.053 110.136 188.909 107.882 189.209C100.801 190.151 128.054 203.193 117.153 197.976C114.201 196.563 110.417 194.533 105.586 191.694C83.8651 178.926 50.3546 157.946 35.2461 131.211C22.7703 109.135 31.7869 85.6059 55.5196 64.9886Z" fill="#F5A647"/>
<g filter="url(#filter0_d)">
<circle cx="121" cy="108.826" r="72" fill="#3A61F0"/>
</g>
<path fill-rule="evenodd" clip-rule="evenodd" d="M92.7647 88.8264C92.7647 101.498 102.623 111.919 115.102 112.879C115.102 109.461 117.853 106.951 121 106.951C124.15 106.951 126.898 109.464 126.898 112.879C139.377 111.919 149.235 101.498 149.235 88.8264V86.9514H136.416L133.68 78.6893C132.915 76.3788 130.759 74.8264 128.317 74.8264H113.683C111.241 74.8264 109.085 76.3788 108.32 78.6892L105.584 86.9514H92.7647V88.8264ZM111.896 79.8639C112.151 79.0938 112.869 78.5764 113.683 78.5764H128.317C129.131 78.5764 129.849 79.0938 130.104 79.864L132.452 86.9514H109.548L111.896 79.8639ZM89 133.201V130.701H153V133.201C153 136.303 150.467 138.826 147.353 138.826H94.6471C91.5333 138.826 89 136.303 89 133.201ZM118.867 112.826V116.826C118.867 117.998 119.824 118.951 121 118.951C122.176 118.951 123.133 117.998 123.133 116.826V112.826C123.133 111.655 122.176 110.701 121 110.701C119.824 110.701 118.867 111.655 118.867 112.826ZM153 88.8264V126.951H89V88.8264C89 103.667 100.583 115.684 115.102 116.638V116.826C115.102 120.066 117.748 122.701 121 122.701C124.252 122.701 126.898 120.066 126.898 116.826V116.638C141.414 115.684 153 103.67 153 88.8264Z" fill="white"/>
<defs>
<filter id="filter0_d" x="25" y="24.8264" width="192" height="192" filterUnits="userSpaceOnUse" color-interpolation-filters="sRGB">
<feFlood flood-opacity="0" result="BackgroundImageFix"/>
<feColorMatrix in="SourceAlpha" type="matrix" values="0 0 0 0 0 0 0 0 0 0 0 0 0 0 0 0 0 0 127 0"/>
<feOffset dy="12"/>
<feGaussianBlur stdDeviation="12"/>
<feColorMatrix type="matrix" values="0 0 0 0 0 0 0 0 0 0 0 0 0 0 0 0 0 0 0.08 0"/>
<feBlend mode="normal" in2="BackgroundImageFix" result="effect1_dropShadow"/>
<feBlend mode="normal" in="SourceGraphic" in2="effect1_dropShadow" result="shape"/>
</filter>
</defs>
</svg>
