<svg width="64" height="64" viewBox="0 0 64 64" fill="none" xmlns="http://www.w3.org/2000/svg">
<circle cx="32" cy="32" r="32" fill="#F5A647"/>
<path fill-rule="evenodd" clip-rule="evenodd" d="M44 33V23H32V20L24 27.5L26.353 30H29.1L26.83 27.588L30 24.616V25H42V31H37.057L39.191 33H44ZM36.215 28.5C36.352 29.01 36.707 29.42 37.288 29.42C37.456 29.42 37.629 29.388 37.804 29.324L37.951 29.863C37.706 29.953 37.455 30 37.205 30C36.134 30 35.53 29.309 35.357 28.5H34.834L34.888 28.166H35.31L35.312 27.834H34.945L35 27.5H35.361C35.536 26.691 36.133 26 37.127 26C37.397 26 37.691 26.047 38 26.139L37.873 26.666C37.631 26.595 37.421 26.562 37.233 26.562C36.684 26.562 36.339 26.982 36.208 27.5H37.5L37.446 27.834H36.155L36.157 28.166H37.389L37.334 28.5H36.215ZM40 36.5L32 29V32H20V41H32V44L40 36.5ZM26.668 39V38.562C27.357 38.465 27.919 38.084 27.919 37.37C27.919 36.6073 27.2413 36.314 26.5995 36.0363C26.4891 35.9885 26.3797 35.9412 26.275 35.892C25.841 35.667 25.897 35.13 26.517 35.094C26.861 35.072 27.216 35.175 27.535 35.287L27.685 34.6C27.308 34.485 26.969 34.432 26.668 34.424V34H26.25V34.443C25.44 34.556 25.008 35.064 25.008 35.631C25.008 36.4574 25.7913 36.7142 26.293 36.8786C26.4081 36.9163 26.5084 36.9492 26.581 36.983C27.11 37.22 27.012 37.713 26.533 37.821C26.118 37.914 25.588 37.75 25.19 37.595L25 38.281C25.372 38.474 25.819 38.576 26.25 38.584V39H26.668Z" fill="white"/>
</svg>
