<svg width="335" height="267" viewBox="0 0 335 267" fill="none" xmlns="http://www.w3.org/2000/svg">
<ellipse cx="9.26761" cy="150.051" rx="9.26761" ry="9.26199" fill="#3A61F0"/>
<ellipse cx="323.439" cy="113.003" rx="5.56056" ry="5.5572" fill="#3A61F0"/>
<ellipse cx="107.504" cy="245.449" rx="5.56056" ry="5.5572" fill="#F5A647"/>
<path d="M227.828 2.62465C229.275 1.17846 231.62 1.17846 233.067 2.62465L249.45 18.9977C250.898 20.4451 250.898 22.7928 249.45 24.2402V24.2402C248.003 25.6864 245.658 25.6864 244.211 24.2402L227.828 7.8672C226.379 6.41976 226.379 4.07208 227.828 2.62465V2.62465Z" fill="#F5A647"/>
<mask id="mask0" mask-type="alpha" maskUnits="userSpaceOnUse" x="24" y="15" width="265" height="197">
<path d="M29.8704 127.984C55.6997 162.89 68.6143 180.344 70.8116 182.675C76.7646 188.993 70.2558 183.098 77.1299 188.398C79.6671 190.355 88.9218 195.88 107.431 206.93C111.873 209.582 117.021 211.18 122.975 211.18C148.11 211.18 213.514 201.829 248.365 196.56C252.29 195.967 254.252 195.671 261.831 191.903C265.176 190.24 276.879 180.99 279.269 178.12C284.685 171.616 282.953 175.915 283.646 174.195C287.25 165.253 289.744 152.999 287.84 137.156C285.987 121.742 247.447 116.27 238.673 90.1427V90.1427C229.812 63.7579 225.382 50.5655 224.861 49.2471C213.06 19.4027 209.584 16.9035 177.536 15.2176C176.12 15.1432 175.188 15.1432 173.324 15.1432H109.215C84.9414 15.1432 72.8046 15.1432 62.2186 19.9244C53.4321 23.8929 44.6221 31.4202 39.331 39.4798C32.9564 49.19 31.2483 60.0011 27.8322 81.6232C25.9263 93.6861 24.6005 105.008 24.6005 113.162C24.6005 118.64 26.6103 123.578 29.8704 127.984Z" fill="white"/>
</mask>
<g mask="url(#mask0)">
<path fill-rule="evenodd" clip-rule="evenodd" d="M-74.631 141.529L-74.6301 141.53L-74.6291 141.531C-73.7606 142.399 -72.3529 142.399 -71.4844 141.531L-71.4835 141.53L180.121 -110.074L180.122 -110.075C180.99 -110.944 180.99 -112.351 180.122 -113.22L180.121 -113.221L180.12 -113.222C179.251 -114.09 177.844 -114.09 176.975 -113.222L176.974 -113.221L-74.6301 138.384L-74.631 138.385C-75.4991 139.253 -75.4991 140.661 -74.631 141.529ZM-65.1912 150.969L-65.1903 150.97L-65.1893 150.971C-64.3208 151.839 -62.9132 151.839 -62.0446 150.971L-62.0437 150.97L189.561 -100.634L189.562 -100.635C190.43 -101.504 190.43 -102.911 189.562 -103.78L189.561 -103.781L189.56 -103.782C188.691 -104.65 187.284 -104.65 186.415 -103.782L186.414 -103.781L-65.1903 147.824L-65.1912 147.824C-66.0593 148.693 -66.0593 150.101 -65.1912 150.969ZM-55.7505 160.41L-55.7515 160.409C-56.6195 159.54 -56.6195 158.133 -55.7515 157.264L-55.7505 157.263L195.854 -94.3411L195.855 -94.3421C196.723 -95.2101 198.131 -95.2101 199 -94.3421L199 -94.3411L199.001 -94.3402C199.869 -93.4716 199.869 -92.064 199.001 -91.1955L199 -91.1945L-52.6039 160.41L-52.6049 160.411C-53.4734 161.279 -54.881 161.279 -55.7496 160.411L-55.7505 160.41ZM-46.3117 169.849L-46.3107 169.85L-46.3098 169.851C-45.4413 170.719 -44.0336 170.719 -43.1651 169.851L-43.1641 169.85L208.44 -81.7548L208.441 -81.7557C209.309 -82.6242 209.309 -84.0319 208.441 -84.9004L208.44 -84.9013L208.439 -84.9023C207.571 -85.7703 206.163 -85.7703 205.295 -84.9023L205.294 -84.9013L-46.3107 166.703L-46.3117 166.704C-47.1797 167.573 -47.1797 168.98 -46.3117 169.849ZM-36.871 179.289L-36.8719 179.288C-37.74 178.42 -37.74 177.012 -36.8719 176.144L-36.871 176.143L214.733 -75.4616L214.734 -75.4625C215.603 -76.3306 217.011 -76.3306 217.879 -75.4625L217.88 -75.4616L217.881 -75.4606C218.749 -74.5921 218.749 -73.1844 217.881 -72.3159L217.88 -72.315L-33.7244 179.289L-33.7253 179.29C-34.5938 180.158 -36.0015 180.158 -36.87 179.29L-36.871 179.289ZM-27.4321 188.728L-27.4312 188.729L-27.4302 188.73C-26.5617 189.598 -25.154 189.598 -24.2855 188.73L-24.2846 188.729L227.32 -62.8752L227.321 -62.8761C228.189 -63.7447 228.189 -65.1523 227.321 -66.0208L227.32 -66.0218L227.319 -66.0227C226.45 -66.8908 225.043 -66.8908 224.174 -66.0227L224.173 -66.0218L-27.4312 185.583L-27.4321 185.584C-28.3002 186.452 -28.3002 187.86 -27.4321 188.728ZM-17.9914 198.169L-17.9923 198.168C-18.8604 197.3 -18.8604 195.892 -17.9923 195.023L-17.9914 195.022L233.613 -56.582L233.614 -56.583C234.482 -57.451 235.89 -57.451 236.759 -56.583L236.76 -56.582L236.761 -56.5811C237.629 -55.7125 237.629 -54.3049 236.761 -53.4364L236.76 -53.4354L-14.8448 198.169L-14.8458 198.17C-15.7143 199.038 -17.1219 199.038 -17.9905 198.17L-17.9914 198.169ZM-8.55257 207.608L-8.55162 207.609L-8.55067 207.61C-7.68216 208.478 -6.27449 208.478 -5.40598 207.61L-5.40503 207.609L246.199 -43.9956L246.2 -43.9966C247.068 -44.8651 247.068 -46.2728 246.2 -47.1413L246.199 -47.1422L246.198 -47.1432C245.33 -48.0112 243.922 -48.0112 243.054 -47.1432L243.053 -47.1422L-8.55162 204.462L-8.55257 204.463C-9.42063 205.332 -9.42063 206.739 -8.55257 207.608ZM0.88816 217.049L0.88721 217.048C0.0191536 216.179 0.0191559 214.771 0.887212 213.903L0.888161 213.902L252.493 -37.7024L252.494 -37.7034C253.362 -38.5714 254.77 -38.5714 255.638 -37.7034L255.639 -37.7024L255.64 -37.7015C256.508 -36.833 256.508 -35.4253 255.64 -34.5568L255.639 -34.5559L4.03475 217.049L4.0338 217.05C3.16529 217.918 1.75763 217.918 0.889109 217.05L0.88816 217.049ZM10.327 226.487L10.3279 226.488L10.3289 226.489C11.1974 227.357 12.6051 227.357 13.4736 226.489L13.4745 226.488L265.079 -25.1161L265.08 -25.117C265.948 -25.9855 265.948 -27.3932 265.08 -28.2617L265.079 -28.2627L265.078 -28.2636C264.209 -29.1317 262.802 -29.1317 261.933 -28.2636L261.932 -28.2627L10.3279 223.342L10.327 223.343C9.45893 224.211 9.45893 225.619 10.327 226.487ZM19.7677 235.928L19.7668 235.927C18.8987 235.059 18.8987 233.651 19.7668 232.782L19.7677 232.782L271.372 -18.8229L271.373 -18.8238C272.242 -19.6919 273.649 -19.6919 274.518 -18.8238L274.519 -18.8229L274.52 -18.8219C275.388 -17.9534 275.388 -16.5458 274.52 -15.6772L274.519 -15.6763L22.9143 235.928L22.9134 235.929C22.0448 236.797 20.6372 236.797 19.7687 235.929L19.7677 235.928ZM29.2065 245.367L29.2075 245.368L29.2084 245.369C30.077 246.237 31.4846 246.237 32.3531 245.369L32.3541 245.368L283.959 -6.23653L283.959 -6.23748C284.828 -7.10598 284.828 -8.51364 283.959 -9.38217L283.959 -9.38312L283.958 -9.38407C283.089 -10.2521 281.681 -10.2521 280.813 -9.38407L280.812 -9.38312L29.2075 242.221L29.2065 242.222C28.3385 243.091 28.3385 244.498 29.2065 245.367ZM38.6473 254.808L38.6463 254.807C37.7783 253.938 37.7783 252.531 38.6463 251.662L38.6473 251.661L290.252 0.0566648L290.253 0.0557153C291.121 -0.81234 292.529 -0.812329 293.397 0.0557153L293.398 0.0566648L293.399 0.0576143C294.267 0.926144 294.267 2.3338 293.399 3.20231L293.398 3.20326L41.7939 254.808L41.7929 254.809C40.9244 255.677 39.5167 255.677 38.6482 254.809L38.6473 254.808ZM48.0861 264.247L48.0871 264.247L48.088 264.248C48.9565 265.116 50.3642 265.116 51.2327 264.248L51.2336 264.247L302.838 12.643L302.839 12.6421C303.707 11.7736 303.707 10.3659 302.839 9.4974L302.838 9.49645L302.837 9.4955C301.969 8.62745 300.561 8.62744 299.692 9.4955L299.691 9.49645L48.0871 261.101L48.0861 261.102C47.218 261.97 47.2181 263.378 48.0861 264.247ZM57.5268 273.687L57.5259 273.686C56.6578 272.818 56.6578 271.41 57.5259 270.542L57.5268 270.541L309.131 18.9362L309.132 18.9353C310.001 18.0672 311.408 18.0672 312.277 18.9353L312.278 18.9362L312.279 18.9372C313.147 19.8057 313.147 21.2134 312.279 22.0819L312.278 22.0828L60.6734 273.687L60.6725 273.688C59.804 274.556 58.3963 274.556 57.5278 273.688L57.5268 273.687ZM66.9657 283.126L66.9666 283.127L66.9676 283.128C67.8361 283.996 69.2437 283.996 70.1123 283.128L70.1132 283.127L321.718 31.5226L321.719 31.5216C322.587 30.6531 322.587 29.2455 321.719 28.377L321.718 28.376L321.717 28.3751C320.848 27.507 319.44 27.507 318.572 28.3751L318.571 28.376L66.9666 279.98L66.9657 279.981C66.0976 280.85 66.0976 282.258 66.9657 283.126ZM76.4064 292.567L76.4054 292.566C75.5374 291.697 75.5374 290.29 76.4054 289.421L76.4064 289.42L328.011 37.8158L328.012 37.8148C328.88 36.9468 330.288 36.9468 331.156 37.8148L331.157 37.8158L331.158 37.8167C332.026 38.6853 332.026 40.0929 331.158 40.9614L331.157 40.9624L79.553 292.567L79.552 292.568C78.6835 293.436 77.2759 293.436 76.4073 292.568L76.4064 292.567ZM85.8452 302.006L85.8462 302.007L85.8471 302.008C86.7156 302.876 88.1233 302.876 88.9918 302.008L88.9928 302.007L340.597 50.4021L340.598 50.4012C341.466 49.5327 341.466 48.125 340.598 47.2565L340.597 47.2556L340.596 47.2546C339.728 46.3866 338.32 46.3866 337.452 47.2546L337.451 47.2556L85.8462 298.86L85.8452 298.861C84.9772 299.729 84.9772 301.137 85.8452 302.006ZM95.2859 311.446L95.285 311.445C94.4169 310.577 94.4169 309.169 95.285 308.301L95.2859 308.3L346.89 56.6953L346.891 56.6944C347.76 55.8263 349.167 55.8263 350.036 56.6944L350.037 56.6953L350.038 56.6963C350.906 57.5648 350.906 58.9725 350.038 59.841L350.037 59.8419L98.4325 311.446L98.4316 311.447C97.5631 312.315 96.1554 312.315 95.2869 311.447L95.2859 311.446ZM104.725 320.885L104.726 320.886L104.727 320.887C105.595 321.755 107.003 321.755 107.871 320.887L107.872 320.886L359.477 69.2817L359.478 69.2808C360.346 68.4123 360.346 67.0046 359.478 66.1361L359.477 66.1351L359.476 66.1342C358.607 65.2661 357.2 65.2661 356.331 66.1342L356.33 66.1351L104.726 317.74L104.725 317.74C103.857 318.609 103.857 320.017 104.725 320.885Z" fill="#373E68"/>
</g>
<path d="M297.272 152.196C296.355 119.955 295.897 103.835 287.495 88.1259C280.667 75.3604 267.521 62.583 254.567 56.121C238.625 48.1689 219.669 48.1689 181.757 48.1689H143.558C118.236 48.1689 105.575 48.1689 89.9859 55.7017C78.9553 61.0319 60.1277 79.8595 54.7976 90.8901C47.2648 106.479 47.2648 111.149 47.2648 120.489V120.489C47.2648 134.046 54.6381 155.574 62.3085 174.302C66.9068 185.529 69.2059 191.142 74.5749 198.522C78.4571 203.858 86.3259 211.67 91.6908 215.512C99.1102 220.827 105.033 223.202 116.878 227.952C139.151 236.884 166.779 246.569 186.471 248.755C212.425 251.636 239.249 233.712 253.948 221.752C265.572 212.294 271.384 207.566 271.958 207.08C273.887 205.445 271.585 207.448 273.47 205.763C274.031 205.262 275.116 204.253 277.286 202.234C285.405 194.681 294.981 182.966 296.84 168.563C297.357 164.555 297.463 158.897 297.272 152.196Z" fill="#3A61F0"/>
<ellipse cx="172.841" cy="125.97" rx="113.528" ry="101.882" fill="#F5A647"/>
<g filter="url(#filter0_bd)">
<rect x="47.2648" y="47.2427" width="252.079" height="165.79" rx="19.2766" fill="#3A61F0" fill-opacity="0.24"/>
<rect x="47.7282" y="47.7061" width="251.152" height="164.863" rx="18.8132" stroke="white" stroke-opacity="0.08" stroke-width="0.926761"/>
</g>
<path d="M85.8219 69.6734C87.6551 68.6168 89.9123 68.6168 91.7455 69.6734L101.224 75.1364C103.061 76.1954 104.194 78.1546 104.194 80.2753V91.1837C104.194 93.3043 103.061 95.2636 101.224 96.3225L91.7455 101.786C89.9123 102.842 87.6551 102.842 85.8219 101.786L76.3433 96.3225C74.506 95.2636 73.3738 93.3043 73.3738 91.1837V80.2753C73.3738 78.1546 74.506 76.1954 76.3433 75.1364L85.8219 69.6734Z" fill="#F5A647"/>
<rect x="70.9899" y="143.46" width="41.5189" height="11.8421" rx="5.92106" fill="#B1C2FF"/>
<rect x="70.9899" y="174.545" width="65.2439" height="11.8421" rx="5.92106" fill="white"/>
<ellipse cx="269.687" cy="181.947" rx="7.41408" ry="7.40132" fill="white"/>
<rect x="118.44" y="143.46" width="41.5189" height="11.8421" rx="5.92106" fill="#B1C2FF"/>
<rect x="165.89" y="143.46" width="41.5189" height="11.8421" rx="5.92106" fill="#B1C2FF"/>
<rect x="213.34" y="143.46" width="41.5189" height="11.8421" rx="5.92106" fill="#B1C2FF"/>
<defs>
<filter id="filter0_bd" x="12.2648" y="23.0584" width="322.079" height="242.974" filterUnits="userSpaceOnUse" color-interpolation-filters="sRGB">
<feFlood flood-opacity="0" result="BackgroundImageFix"/>
<feGaussianBlur in="BackgroundImage" stdDeviation="12.0921"/>
<feComposite in2="SourceAlpha" operator="in" result="effect1_backgroundBlur"/>
<feColorMatrix in="SourceAlpha" type="matrix" values="0 0 0 0 0 0 0 0 0 0 0 0 0 0 0 0 0 0 127 0"/>
<feOffset dy="18"/>
<feGaussianBlur stdDeviation="17.5"/>
<feColorMatrix type="matrix" values="0 0 0 0 0 0 0 0 0 0 0 0 0 0 0 0 0 0 0.08 0"/>
<feBlend mode="normal" in2="effect1_backgroundBlur" result="effect2_dropShadow"/>
<feBlend mode="normal" in="SourceGraphic" in2="effect2_dropShadow" result="shape"/>
</filter>
</defs>
</svg>
