<svg width="253" height="221" viewBox="0 0 253 221" fill="none" xmlns="http://www.w3.org/2000/svg">
<g clip-path="url(#clip0)">
<rect width="253" height="221" fill="white"/>
<circle cx="237" cy="110" r="12" fill="#3A61F0"/>
<circle cx="9" cy="80" r="9" fill="#181C33"/>
<circle cx="54.5" cy="197.5" r="4.5" fill="#F5A647"/>
<path d="M48.5021 60.8634C50.0122 44.2318 69.8835 36.5269 85.9366 41.13V41.13C90.3122 42.3847 100.881 41.6782 113.49 40.0832C137.282 37.0736 149.178 35.5688 155.92 39.1725C162.045 42.4465 166.044 47.5077 167.814 54.2237C169.761 61.6158 165.773 72.2422 157.795 93.4949L131.24 164.24C124.525 182.127 121.168 191.071 115.849 195.228C110.775 199.192 105.868 200.698 99.4438 200.261C92.7086 199.804 83.814 193.504 66.0248 180.904C60.5993 177.061 55.7437 174.196 52.2365 173.19C45.4658 171.249 39.1036 163.477 34.0594 155.273C30.7161 149.834 29.0445 147.115 28.1459 143.528C27.2465 139.937 27.144 137.472 27.7422 133.818C28.3398 130.169 31.3119 124.29 37.2561 112.532C39.4099 108.272 41.4162 103.445 42.9352 98.1479C45.3969 89.5627 47.2132 75.0583 48.5021 60.8634Z" fill="#F5A647"/>
<path d="M101.506 71.0746C106.533 64.9432 109.047 61.8775 112.233 59.8308C115.215 57.9149 118.027 56.849 121.53 56.3061C125.272 55.7263 130.156 56.5107 139.925 58.0795C144.793 58.8614 149.66 59.4172 153.655 59.4172C155.431 59.4172 158.112 59.1751 161.428 58.7548C174.095 57.1494 180.428 56.3467 182.59 56.4631C198.761 57.3342 202.014 60.2011 204.911 76.1344C205.299 78.2639 205.299 89.4179 205.299 111.726V111.726C205.299 124.608 206.821 137.75 208.359 147.743C209.423 154.654 209.955 158.11 209.431 161.682C209.033 164.387 207.637 168.275 206.222 170.614C204.354 173.703 202.84 175.054 199.811 177.755C194.58 182.42 188.286 186.565 182.435 186.565C176.331 186.565 163.223 191.232 150.769 196.309C139.748 200.802 134.238 203.049 129.311 202.961C124.893 202.882 120.786 201.666 117.036 199.327C112.856 196.719 109.785 192.307 103.644 183.483C88.4547 161.661 69.3594 132.262 69.3594 122.385C69.3594 112.211 87.6329 87.9936 101.506 71.0746Z" fill="#181C33"/>
<g filter="url(#filter0_d)">
<circle cx="127" cy="121" r="72" fill="#3A61F0"/>
</g>
<path fill-rule="evenodd" clip-rule="evenodd" d="M159 110.186V105.659C159 102.538 156.477 100 153.375 100H100.625C97.5234 100 95 102.538 95 105.659V110.186H159ZM138.875 123.892H147.125V128.168H138.875V123.892ZM95 113.958V136.341C95 139.462 97.5234 142 100.625 142H153.375C156.477 142 159 139.462 159 136.341V113.958H95ZM123 131.94H107C105.965 131.94 105.125 131.096 105.125 130.054C105.125 129.012 105.965 128.168 107 128.168H123C124.035 128.168 124.875 129.012 124.875 130.054C124.875 131.096 124.035 131.94 123 131.94ZM107 123.892H123C124.035 123.892 124.875 123.048 124.875 122.006C124.875 120.964 124.035 120.12 123 120.12H107C105.965 120.12 105.125 120.964 105.125 122.006C105.125 123.048 105.965 123.892 107 123.892ZM150.875 130.054C150.875 131.096 150.035 131.94 149 131.94H137C135.965 131.94 135.125 131.096 135.125 130.054V122.006C135.125 120.964 135.965 120.12 137 120.12H149C150.035 120.12 150.875 120.964 150.875 122.006V130.054Z" fill="white"/>
</g>
<defs>
<filter id="filter0_d" x="31" y="37" width="192" height="192" filterUnits="userSpaceOnUse" color-interpolation-filters="sRGB">
<feFlood flood-opacity="0" result="BackgroundImageFix"/>
<feColorMatrix in="SourceAlpha" type="matrix" values="0 0 0 0 0 0 0 0 0 0 0 0 0 0 0 0 0 0 127 0"/>
<feOffset dy="12"/>
<feGaussianBlur stdDeviation="12"/>
<feColorMatrix type="matrix" values="0 0 0 0 0 0 0 0 0 0 0 0 0 0 0 0 0 0 0.08 0"/>
<feBlend mode="normal" in2="BackgroundImageFix" result="effect1_dropShadow"/>
<feBlend mode="normal" in="SourceGraphic" in2="effect1_dropShadow" result="shape"/>
</filter>
<clipPath id="clip0">
<rect width="253" height="221" fill="white"/>
</clipPath>
</defs>
</svg>
