<svg width="253" height="221" viewBox="0 0 253 221" fill="none" xmlns="http://www.w3.org/2000/svg">
<rect width="253" height="221" fill="white"/>
<circle cx="239" cy="108.52" r="12" fill="#3A61F0"/>
<circle cx="11" cy="94.5195" r="9" fill="#181C33"/>
<circle cx="21.5" cy="136.02" r="4.5" fill="#F5A647"/>
<path d="M50.4868 125.8C46.8725 94.6799 45.0654 79.1197 46.7294 72.5343C48.5986 65.1364 49.9733 62.5564 55.0711 56.8788C59.6091 51.8248 65.1504 48.9678 76.2329 43.2538C80.7222 40.9391 84.4536 39.3636 86.7707 39.0389V39.0389C102.772 36.797 110.773 35.6761 114.589 35.9314C128.782 36.8808 136.417 41.5284 143.778 53.6993C145.758 56.9717 147.34 61.4729 150.504 70.4753L162.729 105.255C173.337 135.437 178.641 150.527 175.525 161.734C172.782 171.599 166.25 179.72 157.203 184.515C146.925 189.962 130.839 187.992 98.6653 184.051C89.5861 182.939 82.6283 182.16 79.6015 181.976C77.0967 181.823 73.5379 181.469 69.3738 180.991C50.8303 178.862 46.7735 152.529 50.3389 134.207V134.207C50.8288 131.689 50.8405 128.846 50.4868 125.8Z" fill="#F5A647"/>
<path d="M83.6536 85.1186C80.92 65.9202 79.5532 56.321 82.5594 49.3465C85.2197 43.1748 89.9329 38.339 96.0345 35.5214C102.93 32.3373 112.697 33.4733 132.233 35.7455C148.9 37.684 164.253 39.2598 170.119 39.2598V39.2598C180.224 39.2598 185.277 39.2598 188.959 40.3271C199.936 43.5086 204.194 47.7671 207.376 58.7433C208.443 62.4257 208.443 73.4387 208.443 95.4645V95.4645C208.443 104.587 209.348 119.632 214.658 138.71V138.71C215.958 143.381 216.608 145.716 216.848 147.205C219.063 160.945 209.697 174.79 196.119 177.845C194.648 178.176 199.718 177.617 197.69 177.841C194.024 178.244 190.162 178.485 186.162 178.485C172.801 178.485 147.974 175.805 127.69 173.3C116.454 171.913 110.835 171.219 106.17 168.58C102.117 166.288 98.5815 162.817 96.2142 158.808C93.4888 154.192 92.6726 148.46 91.04 136.994L83.6536 85.1186Z" fill="#181C33"/>
<g filter="url(#filter0_d)">
<circle cx="129" cy="111.52" r="72" fill="#3A61F0"/>
</g>
<path fill-rule="evenodd" clip-rule="evenodd" d="M130.399 77.7894L158.641 89.2953C160.074 89.87 161 91.2351 161 92.7752V97.6322C161 99.7005 159.311 101.383 157.235 101.383H100.765C98.6888 101.383 97 99.7005 97 97.6322V92.7752C97 91.2351 97.9257 89.87 99.3592 89.2953L127.588 77.7944C128.509 77.4252 129.504 77.4324 130.398 77.7891L130.399 77.7894ZM129 93.3808C130.04 93.3808 130.882 92.5411 130.882 91.5053V87.5042C130.882 86.4684 130.04 85.6286 129 85.6286C127.96 85.6286 127.118 86.4684 127.118 87.5042V91.5053C127.118 92.5411 127.96 93.3808 129 93.3808ZM134.898 105.134V125.89H123.102V105.134H134.898ZM143.18 105.134H154.976V125.89H143.18V105.134ZM157.235 129.641C159.311 129.641 161 131.324 161 133.392V137.768C161 139.837 159.311 141.52 157.235 141.52H100.765C98.6888 141.52 97 139.837 97 137.768V133.392C97 131.324 98.6888 129.641 100.765 129.641H157.235ZM114.82 105.134H103.024V125.89H114.82V105.134Z" fill="white"/>
<circle cx="239" cy="108.52" r="12" fill="#3A61F0"/>
<circle cx="11" cy="94.5195" r="9" fill="#181C33"/>
<circle cx="21.5" cy="136.02" r="4.5" fill="#F5A647"/>
<path d="M50.4868 125.8C46.8725 94.6799 45.0654 79.1197 46.7294 72.5343C48.5986 65.1364 49.9733 62.5564 55.0711 56.8788C59.6091 51.8248 65.1504 48.9678 76.2329 43.2538C80.7222 40.9391 84.4536 39.3636 86.7707 39.0389V39.0389C102.772 36.797 110.773 35.6761 114.589 35.9314C128.782 36.8808 136.417 41.5284 143.778 53.6993C145.758 56.9717 147.34 61.4729 150.504 70.4753L162.729 105.255C173.337 135.437 178.641 150.527 175.525 161.734C172.782 171.599 166.25 179.72 157.203 184.515C146.925 189.962 130.839 187.992 98.6653 184.051C89.5861 182.939 82.6283 182.16 79.6015 181.976C77.0967 181.823 73.5379 181.469 69.3738 180.991C50.8303 178.862 46.7735 152.529 50.3389 134.207V134.207C50.8288 131.689 50.8405 128.846 50.4868 125.8Z" fill="#F5A647"/>
<path d="M83.6536 85.1186C80.92 65.9202 79.5532 56.321 82.5594 49.3465C85.2197 43.1748 89.9329 38.339 96.0345 35.5214C102.93 32.3373 112.697 33.4733 132.233 35.7455C148.9 37.684 164.253 39.2598 170.119 39.2598V39.2598C180.224 39.2598 185.277 39.2598 188.959 40.3271C199.936 43.5086 204.194 47.7671 207.376 58.7433C208.443 62.4257 208.443 73.4387 208.443 95.4645V95.4645C208.443 104.587 209.348 119.632 214.658 138.71V138.71C215.958 143.381 216.608 145.716 216.848 147.205C219.063 160.945 209.697 174.79 196.119 177.845C194.648 178.176 199.718 177.617 197.69 177.841C194.024 178.244 190.162 178.485 186.162 178.485C172.801 178.485 147.974 175.805 127.69 173.3C116.454 171.913 110.835 171.219 106.17 168.58C102.117 166.288 98.5815 162.817 96.2142 158.808C93.4888 154.192 92.6726 148.46 91.04 136.994L83.6536 85.1186Z" fill="#181C33"/>
<g filter="url(#filter1_d)">
<circle cx="129" cy="111.52" r="72" fill="#3A61F0"/>
</g>
<path fill-rule="evenodd" clip-rule="evenodd" d="M130.399 77.7894L158.641 89.2953C160.074 89.87 161 91.2351 161 92.7752V97.6322C161 99.7005 159.311 101.383 157.235 101.383H100.765C98.6888 101.383 97 99.7005 97 97.6322V92.7752C97 91.2351 97.9257 89.87 99.3592 89.2953L127.588 77.7944C128.509 77.4252 129.504 77.4324 130.398 77.7891L130.399 77.7894ZM129 93.3808C130.04 93.3808 130.882 92.5411 130.882 91.5053V87.5042C130.882 86.4684 130.04 85.6286 129 85.6286C127.96 85.6286 127.118 86.4684 127.118 87.5042V91.5053C127.118 92.5411 127.96 93.3808 129 93.3808ZM134.898 105.134V125.89H123.102V105.134H134.898ZM143.18 105.134H154.976V125.89H143.18V105.134ZM157.235 129.641C159.311 129.641 161 131.324 161 133.392V137.768C161 139.837 159.311 141.52 157.235 141.52H100.765C98.6888 141.52 97 139.837 97 137.768V133.392C97 131.324 98.6888 129.641 100.765 129.641H157.235ZM114.82 105.134H103.024V125.89H114.82V105.134Z" fill="white"/>
<defs>
<filter id="filter0_d" x="33" y="27.5195" width="192" height="192" filterUnits="userSpaceOnUse" color-interpolation-filters="sRGB">
<feFlood flood-opacity="0" result="BackgroundImageFix"/>
<feColorMatrix in="SourceAlpha" type="matrix" values="0 0 0 0 0 0 0 0 0 0 0 0 0 0 0 0 0 0 127 0"/>
<feOffset dy="12"/>
<feGaussianBlur stdDeviation="12"/>
<feColorMatrix type="matrix" values="0 0 0 0 0 0 0 0 0 0 0 0 0 0 0 0 0 0 0.08 0"/>
<feBlend mode="normal" in2="BackgroundImageFix" result="effect1_dropShadow"/>
<feBlend mode="normal" in="SourceGraphic" in2="effect1_dropShadow" result="shape"/>
</filter>
<filter id="filter1_d" x="33" y="27.5195" width="192" height="192" filterUnits="userSpaceOnUse" color-interpolation-filters="sRGB">
<feFlood flood-opacity="0" result="BackgroundImageFix"/>
<feColorMatrix in="SourceAlpha" type="matrix" values="0 0 0 0 0 0 0 0 0 0 0 0 0 0 0 0 0 0 127 0"/>
<feOffset dy="12"/>
<feGaussianBlur stdDeviation="12"/>
<feColorMatrix type="matrix" values="0 0 0 0 0 0 0 0 0 0 0 0 0 0 0 0 0 0 0.08 0"/>
<feBlend mode="normal" in2="BackgroundImageFix" result="effect1_dropShadow"/>
<feBlend mode="normal" in="SourceGraphic" in2="effect1_dropShadow" result="shape"/>
</filter>
</defs>
</svg>
